<svg xmlns="http://www.w3.org/2000/svg" viewBox="0 0 240 240"><defs><linearGradient id="a" gradientUnits="objectBoundingBox" x1=".2" y1=".1" x2=".8" y2=".9" spreadMethod="pad"><stop stop-color="#fb64b6" offset="0"/><stop stop-color="#615fff" offset="1"/></linearGradient></defs><path transform="translate(5.2 5.2)" fill="url(#a)" fill-rule="evenodd" d="m121.6 2.8 28 28h40.8l.4.1.4.1.3.1h.4l.4.2.3.1.4.2.3.1.3.2.4.2.3.2.3.2.3.2.3.2.3.2.2.3.3.2.3.3.2.3.2.3.3.2.2.3.2.4.2.3.1.3.2.3.2.4.1.3.1.4.1.3.1.4.1.4v.4l.1.3v.4l.1.4v40l28 28 .2.2.2.2.2.2.1.2.2.2.2.3.1.2.2.2.1.2.1.3.2.2v.2l.2.2v.3l.2.2v.3l.2.2v.3l.1.2v.2l.1.3v.2l.1.3v.5l.1.3v2.2l-.1.3v.2l-.1.3-.1.2v.3l-.1.2-.1.3-.1.2-.1.2-.1.3-.1.2-.1.3-.2.2-.1.2-.1.2-.2.3-.1.2-.2.2-.2.2-.1.2-.2.2-.2.2-.2.2-28 28v40.8l-.1.4v.4l-.2.3v.4l-.2.4-.1.3-.1.4-.2.3-.2.3-.1.4-.2.3-.2.3-.2.3-.3.3-.2.3-.2.2-.3.3-.3.3-.2.2-.3.2-.3.3-.3.2-.3.2-.3.2-.4.1-.3.2-.3.2-.4.1-.3.1-.4.1-.4.1-.3.1h-.4l-.4.1h-.4l-.4.1h-40l-28 28-.2.2-.2.2-.2.2-.2.1-.2.2-.2.2-.2.1-.3.2-.2.1-.2.1-.2.2h-.3l-.2.2h-.3l-.2.2h-.2l-.3.2h-.2l-.3.1h-.2l-.3.1h-.2l-.3.1h-.5l-.2.1h-2.3l-.3-.1h-.2l-.3-.1-.2-.1h-.2l-.3-.1-.2-.1-.3-.1-.2-.1-.3-.1-.2-.1-.2-.1-.2-.2-.3-.1-.2-.1-.2-.2-.2-.1-.3-.2-.2-.2-.2-.1-.2-.2-.2-.2-.2-.2-28-28H39.2l-.3-.1h-.4l-.4-.2h-.4l-.3-.2-.4-.1-.3-.1-.4-.2-.3-.2-.3-.1-.3-.2-.4-.2-.3-.2-.2-.3-.3-.2-.3-.2-.3-.3-.2-.3-.3-.2-.2-.3-.2-.3-.2-.3-.2-.3-.2-.3-.2-.4-.2-.3-.1-.3-.2-.4v-.3l-.2-.4-.1-.4v-.3l-.2-.4v-41.2l-28-28-.3-.2-.2-.2-.1-.2-.2-.2-.2-.2-.1-.2-.2-.2-.1-.3-.2-.2v-.2l-.2-.2-.1-.3-.1-.2-.1-.3-.1-.2-.1-.2-.1-.3-.1-.2v-.3l-.1-.2v-.3l-.1-.2v-.3l-.1-.2v-.8l-.1-.2v-1.6l.1-.2v-.3l.1-.2v-.3l.1-.2.1-.2v-.3l.2-.2v-.3l.2-.2v-.3l.2-.2v-.2l.2-.2.1-.3.2-.2.1-.2.2-.2.1-.3.2-.2.2-.2.1-.2.2-.2.2-.2 28-28V39.2l.1-.3.1-.4.1-.4v-.4l.2-.3.1-.4.2-.3.1-.4.2-.3.2-.3.2-.3.2-.4.2-.3.2-.2.2-.3.3-.3.2-.3.3-.2.3-.3.3-.2.2-.2.3-.2.4-.2.3-.2.3-.2.3-.2.4-.1.3-.2h.4l.3-.2.4-.1h.4l.4-.2H80l28-28 .2-.3.2-.2.2-.1.2-.2.2-.2.3-.1.2-.2.2-.1.2-.2h.3l.2-.2.2-.1.2-.1.3-.1.2-.1.3-.1.2-.1.3-.1h.2l.2-.1h.3l.2-.1h.3l.2-.1h.8l.3-.1h1.5l.2.1h.3l.2.1h.3l.2.1.3.1h.2l.3.2h.2l.2.2h.3l.2.2h.3l.2.2.2.1.2.2.3.1.2.2.2.1.2.2.2.2.2.1.2.2z"/><path fill="none" stroke="#fff" stroke-width="8.6" stroke-linecap="square" stroke-miterlimit="2" d="m146.6 93.6-52.8 52.8"/><path fill="none" stroke="#fff" stroke-width="8.6" stroke-linecap="square" stroke-linejoin="bevel" d="m78 138 57.7-57.7 24.6 24.6-57.7 57.7zm-18.5 42.6 9.6-33.6 24 24Zm83-112 28.8 28.8 9.6-9.6-9.6-19.2-19.2-9.6Z"/></svg>